<svg xmlns="http://www.w3.org/2000/svg" viewBox="0 0 512 512"><defs><style>.cls-1{fill:#f1ce34;}.cls-2{fill:#cacaca;}.cls-3{fill:#fff;}.cls-4{fill:#75c07d;}.cls-5{fill:#eec586;}.cls-6{fill:#834538;}.cls-7{fill:#e8aa6c;}.cls-8{fill:#33407a;}.cls-9{fill:#783e35;}.cls-10{fill:#d93a46;}.cls-11{fill:#ad3542;}.cls-12{fill:#db3a46;}.cls-13{fill:#886648;}.cls-14{fill:#9a7250;}.cls-15{fill:#4c3b2c;}.cls-16{fill:#ad7d55;}.cls-17{fill:#ce976b;}.cls-18{fill:#3d3025;}.cls-19{fill:#4c827b;}.cls-20{fill:#57968f;}.cls-21{fill:#bb8663;}.cls-22{fill:#d19629;}.cls-23{fill:#eaac2e;}</style></defs><title>Charity</title><g id="BULINE"><circle class="cls-1" cx="256" cy="262" r="250"/></g><g id="Icons"><path class="cls-2" d="M413.55,269.11a25.76,25.76,0,0,0-16.9-6.29H259.79a25.77,25.77,0,0,0-13.77,4l-.49.32a26.92,26.92,0,0,0-3.22,2.5,21,21,0,0,0-2.21,2.31c-.07.08-.14.15-.2.23q-.41.5-.78,1h0a23.43,23.43,0,0,0-1.83,3c-1.84,3.59-3,8.1-3.31,14h0c-.05,1-.08,2.09-.08,3.21V511q10.06.89,20.35,1H256q5,0,10-.2a248.83,248.83,0,0,0,147.51-55.68q4.59-3.72,9-7.67V288.72A25.8,25.8,0,0,0,413.55,269.11Z"/><path class="cls-3" d="M422.55,288.72V448.45q-4.41,3.94-9,7.67A248.83,248.83,0,0,1,266,511.8V288.72a25.82,25.82,0,0,1,8.42-19.12c.42-.38.86-.76,1.31-1.11a26.21,26.21,0,0,1,2.28-1.63c.75-.48,1.53-.92,2.33-1.33a26,26,0,0,1,10.78-2.7H396.65a25.93,25.93,0,0,1,25.9,25.9Z"/><path class="cls-4" d="M381.07,262.83a50.6,50.6,0,0,1-100.95,0Z"/><path class="cls-5" d="M300.83,232.17h59.54a0,0,0,0,1,0,0v41.13a13.12,13.12,0,0,1-13.12,13.12H314a13.12,13.12,0,0,1-13.12-13.12V232.17A0,0,0,0,1,300.83,232.17Z"/><path class="cls-6" d="M435.71,78.82l-8.4,76.31H233.89l0-.22-8.46-76A68.19,68.19,0,0,1,286.08,3.52c2.33-.23,4.7-.35,7.08-.35h74.78A68.17,68.17,0,0,1,435.71,78.82Z"/><ellipse class="cls-7" cx="233.89" cy="158.23" rx="16.91" ry="22.07"/><path class="cls-7" d="M360.55,62.36S336.24,106,250.8,106c0,0-4,22.26-16.91,30.13v22.19a96.71,96.71,0,1,0,193.42,0V136.17S360.55,114.5,360.55,62.36Z"/><ellipse class="cls-7" cx="427.31" cy="158.23" rx="16.91" ry="22.07"/><path class="cls-5" d="M427.31,116v42.35A96.74,96.74,0,0,1,345.4,254a96.75,96.75,0,0,1-81.92-95.59V116A96.74,96.74,0,0,1,345.4,20.42,96.77,96.77,0,0,1,427.31,116Z"/><rect class="cls-8" x="278.81" y="131.68" width="20.08" height="33.29" rx="10.04"/><circle class="cls-3" cx="290.96" cy="141.42" r="5.28"/><rect class="cls-8" x="366" y="131.68" width="20.08" height="33.29" rx="10.04"/><circle class="cls-3" cx="378.16" cy="141.42" r="5.28"/><rect class="cls-7" x="316.86" y="164.97" width="27.48" height="15.33" rx="7.66"/><path class="cls-6" d="M429.34,116.45l-2,19.71s-66.77-21.66-66.77-73.8c0,0-21.77,39.11-96.51,43.32q-6.34.36-13.23.36s-6.05,22.43-19,30.3L233.89,116A96.72,96.72,0,0,1,330.6,19.3c5,0,18.79-3,23.6-2.22a96.44,96.44,0,0,1,53.6,27.2C425.29,61.77,429.34,89.74,429.34,116.45Z"/><path class="cls-9" d="M270.66,40.12c-8.24,32.45-6.63,65.56-6.63,65.56q-6.34.36-13.23.36s-6.53,30.69-19,30.3l-6.39-57.45A68.19,68.19,0,0,1,286.08,3.52C278.86,14.16,274,27.08,270.66,40.12Z"/><path class="cls-10" d="M364.27,359.28,330.6,393l-27.75-27.75-5.92-5.93a19.62,19.62,0,0,1,27.74-27.74l5.93,5.93,5.93-5.93a19.62,19.62,0,1,1,27.74,27.74Z"/><path class="cls-11" d="M330.6,393l-27.75-27.75-5.92-5.93a19.61,19.61,0,0,1,11.55-33.34A87.22,87.22,0,0,0,330.6,393Z"/><path class="cls-3" d="M460.26,295.35V406.19a251.74,251.74,0,0,1-37.71,42.26q-4.41,3.94-9,7.67v-187H434A26.24,26.24,0,0,1,460.26,295.35Z"/><path class="cls-8" d="M359.19,193.44v6.43c0,.87,0,1.74-.12,2.6a28.59,28.59,0,0,1-56.94,0c-.08-.86-.12-1.73-.12-2.6v-6.43Z"/><path class="cls-12" d="M352.4,218.38a28.6,28.6,0,0,1-43.59,0,28.58,28.58,0,0,1,43.59,0Z"/><path class="cls-3" d="M359.19,193.44v6.43c0,.87,0,1.74-.12,2.6H302.13c-.08-.86-.12-1.73-.12-2.6v-6.43Z"/><path class="cls-13" d="M254.24,512q-10.28-.06-20.35-1a248.55,248.55,0,0,1-120-43.29q-8.49-5.88-16.46-12.42l.84-3.27.89-3.44,13.35-51.73,3.89-15.09,1.47-5.66,5.36-20.78,1.44-5.58,2.81-10.87h0l.44-1.72h82.29L213.7,350l1.43,5.32,5.57,20.78,13.19,49.15,13.44,50.1A246.82,246.82,0,0,1,254.24,512Z"/><path class="cls-14" d="M254.24,512q-10.28-.06-20.35-1a248.55,248.55,0,0,1-120-43.29q1.17-5.08,2.47-10.14l1.37-5.32,4.08-15.81.59-2.28,4.15-16.06.61-2.36,4.14-16.06.48-1.85L136,381.79l1.46-5.66,5.37-20.78.76-3,1-3.75,1.44-5.58.59-2.28.93-3.6h62.76L213.7,350l1.43,5.32,5.57,20.78,13.19,49.15,13.44,50.1A246.82,246.82,0,0,1,254.24,512Z"/><rect class="cls-14" x="130.26" y="343.05" width="77.34" height="33.08"/><path class="cls-15" d="M142.25,327.43h-53a32,32,0,0,1-31.89-34.55l5.4-67.52a36.45,36.45,0,0,1,45.34-32.43l34.14,8.69Z"/><path class="cls-15" d="M192.83,327.43h53a32,32,0,0,0,31.89-34.55l-5.4-67.52A36.45,36.45,0,0,0,227,192.93l-34.15,8.69Z"/><path class="cls-14" d="M240.1,247.94v24.2H99.16v-24.2a45.71,45.71,0,0,1,45.71-45.69h49.52A45.71,45.71,0,0,1,240.1,247.94Z"/><path class="cls-16" d="M240.1,247.94v24.2H128v-24.2a45.69,45.69,0,0,1,45.69-45.69h20.74A45.71,45.71,0,0,1,240.1,247.94Z"/><path class="cls-14" d="M257.15,292.22h0A60.16,60.16,0,0,1,197,352.38H142.27a60.16,60.16,0,0,1-60.16-60.16h0a33,33,0,0,1,33-33h109.1A33,33,0,0,1,257.15,292.22Z"/><path class="cls-16" d="M257.15,292.22h0A60.16,60.16,0,0,1,197,352.38H165.47a60.16,60.16,0,0,1-60.16-60.16h0a33,33,0,0,1,33-33h85.9A33,33,0,0,1,257.15,292.22Z"/><rect class="cls-15" x="121.08" y="240.6" width="18.37" height="26.39" rx="9.18"/><circle class="cls-3" cx="132.91" cy="248.87" r="4.35"/><rect class="cls-15" x="198.42" y="240.6" width="18.37" height="26.39" rx="9.18"/><circle class="cls-3" cx="210.25" cy="248.87" r="4.35"/><rect class="cls-17" x="118.19" y="275.99" width="103.55" height="65.04" rx="32.52"/><path class="cls-18" d="M192.83,276a11.13,11.13,0,0,1-11.15,11.15h-24.1a11.15,11.15,0,1,1,0-22.3h24.1A11.14,11.14,0,0,1,192.83,276Z"/><path class="cls-15" d="M192.83,276a11.13,11.13,0,0,1-11.15,11.15h-12.5a11.15,11.15,0,1,1,0-22.3h12.5A11.14,11.14,0,0,1,192.83,276Z"/><path class="cls-17" d="M184.93,202.25V245.2a14.41,14.41,0,0,1-14.41,14.41h-1.79a14.41,14.41,0,0,1-14.41-14.41V202.25Z"/><path class="cls-19" d="M226.46,358.65v14.17a3.31,3.31,0,0,1-3.3,3.31H115.7a3.31,3.31,0,0,1-3.31-3.31V358.65a3.31,3.31,0,0,1,3.31-3.3H223.16A3.31,3.31,0,0,1,226.46,358.65Z"/><path class="cls-20" d="M226.46,358.65v14.17a3.31,3.31,0,0,1-3.3,3.31H131.21a3.32,3.32,0,0,1-3.32-3.31V358.65a3.32,3.32,0,0,1,3.32-3.3h91.95A3.31,3.31,0,0,1,226.46,358.65Z"/><circle class="cls-21" cx="146.13" cy="295.11" r="3.92"/><circle class="cls-21" cx="139.39" cy="306.38" r="3.92"/><circle class="cls-21" cx="149.76" cy="304.48" r="3.62"/><circle class="cls-21" cx="191.12" cy="295.11" r="3.92"/><circle class="cls-21" cx="197.87" cy="306.38" r="3.92"/><circle class="cls-21" cx="187.5" cy="304.48" r="3.62"/><rect class="cls-21" x="165.14" y="287.14" width="8.98" height="44.01"/><path class="cls-21" d="M169.63,337.26a19.88,19.88,0,0,1-19.86-19.86,3.87,3.87,0,0,1,7.74,0,12.13,12.13,0,0,0,24.25,0,3.87,3.87,0,1,1,7.73,0A19.88,19.88,0,0,1,169.63,337.26Z"/><path class="cls-22" d="M182.61,388.51,172.52,398.6a3.39,3.39,0,0,1-.46.39,3.63,3.63,0,0,1-4.65-.39l-10.09-10.09a3.61,3.61,0,0,1,0-5.09l10.09-10.11a3.63,3.63,0,0,1,4.65-.39,3.39,3.39,0,0,1,.46.39l10.09,10.11A3.59,3.59,0,0,1,182.61,388.51Z"/><path class="cls-23" d="M182.61,388.51,172.52,398.6a3.39,3.39,0,0,1-.46.39,2.93,2.93,0,0,1-.48-.39l-10.09-10.09a3.57,3.57,0,0,1,0-5.09l10.09-10.11a2.93,2.93,0,0,1,.48-.39,3.39,3.39,0,0,1,.46.39l10.09,10.11A3.59,3.59,0,0,1,182.61,388.51Z"/><path class="cls-7" d="M112.55,385.77v62.54a4.07,4.07,0,0,1-3.1,4l0,0a4.24,4.24,0,0,1-.94.11H102.3A22.27,22.27,0,0,1,80,430.14V404a22.22,22.22,0,0,1,22.27-22.27h6.17a4.24,4.24,0,0,1,.94.11A4.09,4.09,0,0,1,112.55,385.77Z"/><path class="cls-5" d="M112.55,415.77v2.36h24.16a8,8,0,1,1,0,16.06H112.55v2.28h24.29a7.91,7.91,0,1,1,0,15.81H105.65v-.7a22.25,22.25,0,0,1-16.32-21.44V404a22.26,22.26,0,0,1,20-22.15h27.4a8,8,0,0,1,7.95,6.92,5.84,5.84,0,0,1,.09,1.12,8.08,8.08,0,0,1-8,8H112.55v1.85h24.16a8,8,0,0,1,7.95,6.94,5.6,5.6,0,0,1,.09,1.09,8,8,0,0,1-8,8Z"/></g></svg>